<svg width="32" height="32" viewBox="0 0 32 32" fill="none" xmlns="http://www.w3.org/2000/svg">
  <rect width="32" height="32" rx="6" fill="url(#gradient)"/>
  <path d="M16 6L17.2 11.8L23 13L17.2 14.2L16 20L14.8 14.2L9 13L14.8 11.8L16 6Z" fill="white"/>
  <path d="M24 8L24.6 10.4L27 11L24.6 11.6L24 14L23.4 11.6L21 11L23.4 10.4L24 8Z" fill="white" opacity="0.8"/>
  <path d="M8 18L8.6 20.4L11 21L8.6 21.6L8 24L7.4 21.6L5 21L7.4 20.4L8 18Z" fill="white" opacity="0.6"/>
  <defs>
    <linearGradient id="gradient" x1="0" y1="0" x2="32" y2="32" gradientUnits="userSpaceOnUse">
      <stop stop-color="#FBBF24"/>
      <stop offset="0.5" stop-color="#F59E0B"/>
      <stop offset="1" stop-color="#EC4899"/>
    </linearGradient>
  </defs>
</svg> 